<svg width="12" height="13" viewBox="0 0 12 13" fill="none" xmlns="http://www.w3.org/2000/svg">
<path fill-rule="evenodd" clip-rule="evenodd" d="M5.99999 12.1C7.48521 12.1 8.90959 11.51 9.95979 10.4598C11.01 9.40959 11.6 7.98521 11.6 6.49999C11.6 5.01478 11.01 3.5904 9.95979 2.5402C8.90959 1.48999 7.48521 0.899994 5.99999 0.899994C4.51478 0.899994 3.0904 1.48999 2.0402 2.5402C0.989992 3.5904 0.399994 5.01478 0.399994 6.49999C0.399994 7.98521 0.989992 9.40959 2.0402 10.4598C3.0904 11.51 4.51478 12.1 5.99999 12.1ZM8.59489 5.59489C8.7224 5.46287 8.79296 5.28605 8.79136 5.10251C8.78977 4.91898 8.71615 4.74341 8.58637 4.61362C8.45658 4.48383 8.28101 4.41022 8.09747 4.40862C7.91394 4.40703 7.73711 4.47758 7.60509 4.60509L5.29999 6.91019L4.39489 6.00509C4.26287 5.87758 4.08605 5.80703 3.90251 5.80862C3.71897 5.81022 3.54341 5.88383 3.41362 6.01362C3.28383 6.14341 3.21022 6.31897 3.20862 6.50251C3.20703 6.68605 3.27758 6.86287 3.40509 6.99489L4.80509 8.39489C4.93636 8.52612 5.11438 8.59984 5.29999 8.59984C5.48561 8.59984 5.66362 8.52612 5.79489 8.39489L8.59489 5.59489Z" fill="#5C14B7"/>
</svg>
