<svg width="12" height="13" viewBox="0 0 12 13" fill="none" xmlns="http://www.w3.org/2000/svg">
<path fill-rule="evenodd" clip-rule="evenodd" d="M6.00002 12.1C7.48524 12.1 8.90962 11.51 9.95982 10.4598C11.01 9.40959 11.6 7.98521 11.6 6.49999C11.6 5.01478 11.01 3.5904 9.95982 2.5402C8.90962 1.48999 7.48524 0.899994 6.00002 0.899994C4.51481 0.899994 3.09043 1.48999 2.04023 2.5402C0.990023 3.5904 0.400024 5.01478 0.400024 6.49999C0.400024 7.98521 0.990023 9.40959 2.04023 10.4598C3.09043 11.51 4.51481 12.1 6.00002 12.1ZM8.59492 5.59489C8.72243 5.46287 8.79299 5.28605 8.7914 5.10251C8.7898 4.91898 8.71618 4.74341 8.5864 4.61362C8.45661 4.48383 8.28104 4.41022 8.0975 4.40862C7.91397 4.40703 7.73715 4.47758 7.60512 4.60509L5.30002 6.91019L4.39492 6.00509C4.2629 5.87758 4.08608 5.80703 3.90254 5.80862C3.71901 5.81022 3.54344 5.88383 3.41365 6.01362C3.28387 6.14341 3.21025 6.31897 3.20865 6.50251C3.20706 6.68605 3.27761 6.86287 3.40512 6.99489L4.80512 8.39489C4.93639 8.52612 5.11441 8.59984 5.30002 8.59984C5.48564 8.59984 5.66365 8.52612 5.79492 8.39489L8.59492 5.59489Z" fill="#FFF6FF"/>
</svg>
